<svg xmlns="http://www.w3.org/2000/svg" viewBox="0 0 290 290" shape-rendering="crispEdges"><rect width="290" height="290" fill="#ffffff"/><g fill="#1c1a17"><rect x="20" y="20" width="10" height="10"/><rect x="30" y="20" width="10" height="10"/><rect x="40" y="20" width="10" height="10"/><rect x="50" y="20" width="10" height="10"/><rect x="60" y="20" width="10" height="10"/><rect x="70" y="20" width="10" height="10"/><rect x="80" y="20" width="10" height="10"/><rect x="120" y="20" width="10" height="10"/><rect x="130" y="20" width="10" height="10"/><rect x="140" y="20" width="10" height="10"/><rect x="160" y="20" width="10" height="10"/><rect x="170" y="20" width="10" height="10"/><rect x="180" y="20" width="10" height="10"/><rect x="200" y="20" width="10" height="10"/><rect x="210" y="20" width="10" height="10"/><rect x="220" y="20" width="10" height="10"/><rect x="230" y="20" width="10" height="10"/><rect x="240" y="20" width="10" height="10"/><rect x="250" y="20" width="10" height="10"/><rect x="260" y="20" width="10" height="10"/><rect x="20" y="30" width="10" height="10"/><rect x="80" y="30" width="10" height="10"/><rect x="170" y="30" width="10" height="10"/><rect x="180" y="30" width="10" height="10"/><rect x="200" y="30" width="10" height="10"/><rect x="260" y="30" width="10" height="10"/><rect x="20" y="40" width="10" height="10"/><rect x="40" y="40" width="10" height="10"/><rect x="50" y="40" width="10" height="10"/><rect x="60" y="40" width="10" height="10"/><rect x="80" y="40" width="10" height="10"/><rect x="170" y="40" width="10" height="10"/><rect x="200" y="40" width="10" height="10"/><rect x="220" y="40" width="10" height="10"/><rect x="230" y="40" width="10" height="10"/><rect x="240" y="40" width="10" height="10"/><rect x="260" y="40" width="10" height="10"/><rect x="20" y="50" width="10" height="10"/><rect x="40" y="50" width="10" height="10"/><rect x="50" y="50" width="10" height="10"/><rect x="60" y="50" width="10" height="10"/><rect x="80" y="50" width="10" height="10"/><rect x="110" y="50" width="10" height="10"/><rect x="120" y="50" width="10" height="10"/><rect x="130" y="50" width="10" height="10"/><rect x="160" y="50" width="10" height="10"/><rect x="200" y="50" width="10" height="10"/><rect x="220" y="50" width="10" height="10"/><rect x="230" y="50" width="10" height="10"/><rect x="240" y="50" width="10" height="10"/><rect x="260" y="50" width="10" height="10"/><rect x="20" y="60" width="10" height="10"/><rect x="40" y="60" width="10" height="10"/><rect x="50" y="60" width="10" height="10"/><rect x="60" y="60" width="10" height="10"/><rect x="80" y="60" width="10" height="10"/><rect x="110" y="60" width="10" height="10"/><rect x="120" y="60" width="10" height="10"/><rect x="130" y="60" width="10" height="10"/><rect x="180" y="60" width="10" height="10"/><rect x="200" y="60" width="10" height="10"/><rect x="220" y="60" width="10" height="10"/><rect x="230" y="60" width="10" height="10"/><rect x="240" y="60" width="10" height="10"/><rect x="260" y="60" width="10" height="10"/><rect x="20" y="70" width="10" height="10"/><rect x="80" y="70" width="10" height="10"/><rect x="140" y="70" width="10" height="10"/><rect x="150" y="70" width="10" height="10"/><rect x="180" y="70" width="10" height="10"/><rect x="200" y="70" width="10" height="10"/><rect x="260" y="70" width="10" height="10"/><rect x="20" y="80" width="10" height="10"/><rect x="30" y="80" width="10" height="10"/><rect x="40" y="80" width="10" height="10"/><rect x="50" y="80" width="10" height="10"/><rect x="60" y="80" width="10" height="10"/><rect x="70" y="80" width="10" height="10"/><rect x="80" y="80" width="10" height="10"/><rect x="100" y="80" width="10" height="10"/><rect x="120" y="80" width="10" height="10"/><rect x="140" y="80" width="10" height="10"/><rect x="160" y="80" width="10" height="10"/><rect x="180" y="80" width="10" height="10"/><rect x="200" y="80" width="10" height="10"/><rect x="210" y="80" width="10" height="10"/><rect x="220" y="80" width="10" height="10"/><rect x="230" y="80" width="10" height="10"/><rect x="240" y="80" width="10" height="10"/><rect x="250" y="80" width="10" height="10"/><rect x="260" y="80" width="10" height="10"/><rect x="110" y="90" width="10" height="10"/><rect x="160" y="90" width="10" height="10"/><rect x="170" y="90" width="10" height="10"/><rect x="80" y="100" width="10" height="10"/><rect x="120" y="100" width="10" height="10"/><rect x="20" y="110" width="10" height="10"/><rect x="40" y="110" width="10" height="10"/><rect x="100" y="110" width="10" height="10"/><rect x="110" y="110" width="10" height="10"/><rect x="120" y="110" width="10" height="10"/><rect x="130" y="110" width="10" height="10"/><rect x="140" y="110" width="10" height="10"/><rect x="150" y="110" width="10" height="10"/><rect x="160" y="110" width="10" height="10"/><rect x="180" y="110" width="10" height="10"/><rect x="200" y="110" width="10" height="10"/><rect x="240" y="110" width="10" height="10"/><rect x="20" y="120" width="10" height="10"/><rect x="30" y="120" width="10" height="10"/><rect x="40" y="120" width="10" height="10"/><rect x="60" y="120" width="10" height="10"/><rect x="80" y="120" width="10" height="10"/><rect x="90" y="120" width="10" height="10"/><rect x="100" y="120" width="10" height="10"/><rect x="110" y="120" width="10" height="10"/><rect x="120" y="120" width="10" height="10"/><rect x="140" y="120" width="10" height="10"/><rect x="150" y="120" width="10" height="10"/><rect x="170" y="120" width="10" height="10"/><rect x="180" y="120" width="10" height="10"/><rect x="200" y="120" width="10" height="10"/><rect x="220" y="120" width="10" height="10"/><rect x="260" y="120" width="10" height="10"/><rect x="20" y="130" width="10" height="10"/><rect x="40" y="130" width="10" height="10"/><rect x="110" y="130" width="10" height="10"/><rect x="130" y="130" width="10" height="10"/><rect x="150" y="130" width="10" height="10"/><rect x="170" y="130" width="10" height="10"/><rect x="180" y="130" width="10" height="10"/><rect x="200" y="130" width="10" height="10"/><rect x="210" y="130" width="10" height="10"/><rect x="230" y="130" width="10" height="10"/><rect x="240" y="130" width="10" height="10"/><rect x="250" y="130" width="10" height="10"/><rect x="260" y="130" width="10" height="10"/><rect x="30" y="140" width="10" height="10"/><rect x="50" y="140" width="10" height="10"/><rect x="70" y="140" width="10" height="10"/><rect x="80" y="140" width="10" height="10"/><rect x="90" y="140" width="10" height="10"/><rect x="110" y="140" width="10" height="10"/><rect x="120" y="140" width="10" height="10"/><rect x="130" y="140" width="10" height="10"/><rect x="140" y="140" width="10" height="10"/><rect x="220" y="140" width="10" height="10"/><rect x="230" y="140" width="10" height="10"/><rect x="240" y="140" width="10" height="10"/><rect x="250" y="140" width="10" height="10"/><rect x="260" y="140" width="10" height="10"/><rect x="20" y="150" width="10" height="10"/><rect x="50" y="150" width="10" height="10"/><rect x="60" y="150" width="10" height="10"/><rect x="70" y="150" width="10" height="10"/><rect x="90" y="150" width="10" height="10"/><rect x="110" y="150" width="10" height="10"/><rect x="130" y="150" width="10" height="10"/><rect x="140" y="150" width="10" height="10"/><rect x="150" y="150" width="10" height="10"/><rect x="180" y="150" width="10" height="10"/><rect x="190" y="150" width="10" height="10"/><rect x="240" y="150" width="10" height="10"/><rect x="250" y="150" width="10" height="10"/><rect x="20" y="160" width="10" height="10"/><rect x="30" y="160" width="10" height="10"/><rect x="50" y="160" width="10" height="10"/><rect x="70" y="160" width="10" height="10"/><rect x="80" y="160" width="10" height="10"/><rect x="90" y="160" width="10" height="10"/><rect x="130" y="160" width="10" height="10"/><rect x="150" y="160" width="10" height="10"/><rect x="160" y="160" width="10" height="10"/><rect x="170" y="160" width="10" height="10"/><rect x="190" y="160" width="10" height="10"/><rect x="200" y="160" width="10" height="10"/><rect x="250" y="160" width="10" height="10"/><rect x="30" y="170" width="10" height="10"/><rect x="40" y="170" width="10" height="10"/><rect x="60" y="170" width="10" height="10"/><rect x="100" y="170" width="10" height="10"/><rect x="120" y="170" width="10" height="10"/><rect x="140" y="170" width="10" height="10"/><rect x="150" y="170" width="10" height="10"/><rect x="170" y="170" width="10" height="10"/><rect x="200" y="170" width="10" height="10"/><rect x="210" y="170" width="10" height="10"/><rect x="230" y="170" width="10" height="10"/><rect x="240" y="170" width="10" height="10"/><rect x="250" y="170" width="10" height="10"/><rect x="20" y="180" width="10" height="10"/><rect x="30" y="180" width="10" height="10"/><rect x="40" y="180" width="10" height="10"/><rect x="60" y="180" width="10" height="10"/><rect x="80" y="180" width="10" height="10"/><rect x="120" y="180" width="10" height="10"/><rect x="160" y="180" width="10" height="10"/><rect x="170" y="180" width="10" height="10"/><rect x="180" y="180" width="10" height="10"/><rect x="190" y="180" width="10" height="10"/><rect x="200" y="180" width="10" height="10"/><rect x="210" y="180" width="10" height="10"/><rect x="220" y="180" width="10" height="10"/><rect x="260" y="180" width="10" height="10"/><rect x="170" y="190" width="10" height="10"/><rect x="180" y="190" width="10" height="10"/><rect x="220" y="190" width="10" height="10"/><rect x="250" y="190" width="10" height="10"/><rect x="260" y="190" width="10" height="10"/><rect x="20" y="200" width="10" height="10"/><rect x="30" y="200" width="10" height="10"/><rect x="40" y="200" width="10" height="10"/><rect x="50" y="200" width="10" height="10"/><rect x="60" y="200" width="10" height="10"/><rect x="70" y="200" width="10" height="10"/><rect x="80" y="200" width="10" height="10"/><rect x="120" y="200" width="10" height="10"/><rect x="160" y="200" width="10" height="10"/><rect x="180" y="200" width="10" height="10"/><rect x="200" y="200" width="10" height="10"/><rect x="220" y="200" width="10" height="10"/><rect x="20" y="210" width="10" height="10"/><rect x="80" y="210" width="10" height="10"/><rect x="110" y="210" width="10" height="10"/><rect x="140" y="210" width="10" height="10"/><rect x="150" y="210" width="10" height="10"/><rect x="170" y="210" width="10" height="10"/><rect x="180" y="210" width="10" height="10"/><rect x="220" y="210" width="10" height="10"/><rect x="230" y="210" width="10" height="10"/><rect x="240" y="210" width="10" height="10"/><rect x="20" y="220" width="10" height="10"/><rect x="40" y="220" width="10" height="10"/><rect x="50" y="220" width="10" height="10"/><rect x="60" y="220" width="10" height="10"/><rect x="80" y="220" width="10" height="10"/><rect x="130" y="220" width="10" height="10"/><rect x="160" y="220" width="10" height="10"/><rect x="180" y="220" width="10" height="10"/><rect x="190" y="220" width="10" height="10"/><rect x="200" y="220" width="10" height="10"/><rect x="210" y="220" width="10" height="10"/><rect x="220" y="220" width="10" height="10"/><rect x="230" y="220" width="10" height="10"/><rect x="260" y="220" width="10" height="10"/><rect x="20" y="230" width="10" height="10"/><rect x="40" y="230" width="10" height="10"/><rect x="50" y="230" width="10" height="10"/><rect x="60" y="230" width="10" height="10"/><rect x="80" y="230" width="10" height="10"/><rect x="110" y="230" width="10" height="10"/><rect x="120" y="230" width="10" height="10"/><rect x="140" y="230" width="10" height="10"/><rect x="160" y="230" width="10" height="10"/><rect x="220" y="230" width="10" height="10"/><rect x="20" y="240" width="10" height="10"/><rect x="40" y="240" width="10" height="10"/><rect x="50" y="240" width="10" height="10"/><rect x="60" y="240" width="10" height="10"/><rect x="80" y="240" width="10" height="10"/><rect x="110" y="240" width="10" height="10"/><rect x="120" y="240" width="10" height="10"/><rect x="130" y="240" width="10" height="10"/><rect x="140" y="240" width="10" height="10"/><rect x="160" y="240" width="10" height="10"/><rect x="200" y="240" width="10" height="10"/><rect x="220" y="240" width="10" height="10"/><rect x="230" y="240" width="10" height="10"/><rect x="240" y="240" width="10" height="10"/><rect x="250" y="240" width="10" height="10"/><rect x="260" y="240" width="10" height="10"/><rect x="20" y="250" width="10" height="10"/><rect x="80" y="250" width="10" height="10"/><rect x="130" y="250" width="10" height="10"/><rect x="140" y="250" width="10" height="10"/><rect x="150" y="250" width="10" height="10"/><rect x="160" y="250" width="10" height="10"/><rect x="170" y="250" width="10" height="10"/><rect x="190" y="250" width="10" height="10"/><rect x="200" y="250" width="10" height="10"/><rect x="210" y="250" width="10" height="10"/><rect x="240" y="250" width="10" height="10"/><rect x="250" y="250" width="10" height="10"/><rect x="20" y="260" width="10" height="10"/><rect x="30" y="260" width="10" height="10"/><rect x="40" y="260" width="10" height="10"/><rect x="50" y="260" width="10" height="10"/><rect x="60" y="260" width="10" height="10"/><rect x="70" y="260" width="10" height="10"/><rect x="80" y="260" width="10" height="10"/><rect x="110" y="260" width="10" height="10"/><rect x="130" y="260" width="10" height="10"/><rect x="140" y="260" width="10" height="10"/><rect x="150" y="260" width="10" height="10"/><rect x="160" y="260" width="10" height="10"/><rect x="170" y="260" width="10" height="10"/><rect x="200" y="260" width="10" height="10"/><rect x="220" y="260" width="10" height="10"/><rect x="250" y="260" width="10" height="10"/></g></svg>